<svg xmlns="http://www.w3.org/2000/svg" xmlns:xlink="http://www.w3.org/1999/xlink" id="processonSvg1000" viewBox="235.37500000000006 29.0 428.62499999999994 426.0" width="428.62499999999994" height="426.0"><defs id="ProcessOnDefs1001"/><g id="ProcessOnG1002"><path id="ProcessOnPath1003" d="M235.37500000000006 29.0H664.0V455.0H235.37500000000006V29.0Z" fill="none"/><g id="ProcessOnG1004"><g id="ProcessOnG1005" transform="matrix(6.123233995736766E-17,1.0,-1.0,6.123233995736766E-17,603.0,159.00000000000023)" opacity="1.0"><path id="ProcessOnPath1006" d="M0.0 0.0L240.99999999999977 0.0L0.0 0.0M0.0 275.0000000000002L240.99999999999977 275.0000000000002L0.0 275.0000000000002Z" stroke="#323232" stroke-width="2.0" stroke-dasharray="none" opacity="1.0" fill="#ffffff"/><path id="ProcessOnPath1007" d="M0.0 0.0L240.99999999999977 0.0L240.99999999999977 275.0000000000002L0.0 275.0000000000002L0.0 0.0Z" stroke="none" stroke-width="0.0" stroke-dasharray="none" opacity="1.0" fill="none"/></g><g id="ProcessOnG1008" transform="matrix(1.0,0.0,0.0,1.0,294.0,115.0)" opacity="1.0"><path id="ProcessOnPath1009" d="M0.0 0.0L82.0 0.0L82.0 38.0L0.0 38.0Z" stroke="none" stroke-width="0.0" stroke-dasharray="none" opacity="1.0" fill="none"/><g id="ProcessOnG1010" transform="matrix(1.0,0.0,0.0,1.0,0.0,5.25)"><text id="ProcessOnText1011" fill="#007fff" font-size="22" x="40.0" y="22.55" font-family="微软雅黑" font-weight="bold" font-style="normal" text-decoration="none" family="微软雅黑" text-anchor="middle" size="22">client</text></g></g><g id="ProcessOnG1012" transform="matrix(1.0,0.0,0.0,1.0,560.0,118.0)" opacity="1.0"><path id="ProcessOnPath1013" d="M0.0 0.0L82.0 0.0L82.0 38.0L0.0 38.0Z" stroke="none" stroke-width="0.0" stroke-dasharray="none" opacity="1.0" fill="none"/><g id="ProcessOnG1014" transform="matrix(1.0,0.0,0.0,1.0,0.0,5.25)"><text id="ProcessOnText1015" fill="#ff0080" font-size="22" x="40.0" y="22.55" font-family="微软雅黑" font-weight="bold" font-style="normal" text-decoration="none" family="微软雅黑" text-anchor="middle" size="22">server</text></g></g><g id="ProcessOnG1016" transform="matrix(1.0,0.0,0.0,1.0,341.0,169.0)" opacity="1.0"><path id="ProcessOnPath1017" d="M0.0 7.590000000000001L245.5 7.590000000000001L245.5 0.0L257.0 11.5L245.5 23.0L245.5 15.41L0.0 15.41L0.0 7.590000000000001Z" stroke="#323232" stroke-width="2.0" stroke-dasharray="none" opacity="1.0" fill="#ffffff"/></g><g id="ProcessOnG1018" transform="matrix(1.0,0.0,0.0,1.0,418.2499999999999,146.0)" opacity="1.0"><path id="ProcessOnPath1019" d="M0.0 0.0L97.0 0.0L97.0 23.0L0.0 23.0Z" stroke="none" stroke-width="0.0" stroke-dasharray="none" opacity="1.0" fill="none"/><g id="ProcessOnG1020" transform="matrix(1.0,0.0,0.0,1.0,0.0,3.375)"><text id="ProcessOnText1021" fill="#007fff" font-size="13" x="47.5" y="13.325" font-family="微软雅黑" font-weight="bold" font-style="normal" text-decoration="none" family="微软雅黑" text-anchor="middle" size="13">SayHello() call</text></g></g><g id="ProcessOnG1022" transform="matrix(-1.0,1.2246467991473532E-16,-1.2246467991473532E-16,-1.0,593.0,243.99999999999997)" opacity="1.0"><path id="ProcessOnPath1023" d="M0.0 7.590000000000001L245.5 7.590000000000001L245.5 0.0L257.0 11.5L245.5 23.0L245.5 15.41L0.0 15.41L0.0 7.590000000000001Z" stroke="#323232" stroke-width="2.0" stroke-dasharray="none" opacity="1.0" fill="#ffffff"/></g><g id="ProcessOnG1024" transform="matrix(1.0,0.0,0.0,1.0,400.37500000000006,199.0)" opacity="1.0"><path id="ProcessOnPath1025" d="M0.0 0.0L128.2499999999999 0.0L128.2499999999999 22.0L0.0 22.0Z" stroke="none" stroke-width="0.0" stroke-dasharray="none" opacity="1.0" fill="none"/><g id="ProcessOnG1026" transform="matrix(1.0,0.0,0.0,1.0,0.0,2.875)"><text id="ProcessOnText1027" fill="#ff0080" font-size="13" x="63.12499999999994" y="13.325" font-family="微软雅黑" font-weight="bold" font-style="normal" text-decoration="none" family="微软雅黑" text-anchor="middle" size="13">GetNickname() call</text></g></g><g id="ProcessOnG1028" transform="matrix(1.0,0.0,0.0,1.0,394.4374999999999,254.0)" opacity="1.0"><path id="ProcessOnPath1029" d="M0.0 0.0L144.62499999999994 0.0L144.62499999999994 23.0L0.0 23.0Z" stroke="none" stroke-width="0.0" stroke-dasharray="none" opacity="1.0" fill="none"/><g id="ProcessOnG1030" transform="matrix(1.0,0.0,0.0,1.0,0.0,3.375)"><text id="ProcessOnText1031" fill="#007fff" font-size="13" x="71.31249999999997" y="13.325" font-family="微软雅黑" font-weight="bold" font-style="normal" text-decoration="none" family="微软雅黑" text-anchor="middle" size="13">GetNickname() return</text></g></g><g id="ProcessOnG1032" transform="matrix(1.0,0.0,0.0,1.0,336.0,277.0)" opacity="1.0"><path id="ProcessOnPath1033" d="M0.0 7.590000000000001L245.5 7.590000000000001L245.5 0.0L257.0 11.5L245.5 23.0L245.5 15.41L0.0 15.41L0.0 7.590000000000001Z" stroke="#323232" stroke-width="2.0" stroke-dasharray="none" opacity="1.0" fill="#ffffff"/></g><g id="ProcessOnG1034" transform="matrix(1.0,0.0,0.0,1.0,408.2499999999999,311.0)" opacity="1.0"><path id="ProcessOnPath1035" d="M0.0 0.0L117.0 0.0L117.0 22.0L0.0 22.0Z" stroke="none" stroke-width="0.0" stroke-dasharray="none" opacity="1.0" fill="none"/><g id="ProcessOnG1036" transform="matrix(1.0,0.0,0.0,1.0,0.0,2.875)"><text id="ProcessOnText1037" fill="#ff0080" font-size="13" x="57.5" y="13.325" font-family="微软雅黑" font-weight="bold" font-style="normal" text-decoration="none" family="微软雅黑" text-anchor="middle" size="13">SayHello() return</text></g></g><g id="ProcessOnG1038" transform="matrix(-1.0,1.2246467991473532E-16,-1.2246467991473532E-16,-1.0,593.0,356.0)" opacity="1.0"><path id="ProcessOnPath1039" d="M0.0 7.590000000000001L245.5 7.590000000000001L245.5 0.0L257.0 11.5L245.5 23.0L245.5 15.41L0.0 15.41L0.0 7.590000000000001Z" stroke="#323232" stroke-width="2.0" stroke-dasharray="none" opacity="1.0" fill="#ffffff"/></g><g id="ProcessOnG1040" transform="matrix(1.0,0.0,0.0,1.0,285.0,49.0)" opacity="1.0"><path id="ProcessOnPath1041" d="M0.0 0.0L359.0 0.0L359.0 39.0L0.0 39.0Z" stroke="none" stroke-width="0.0" stroke-dasharray="none" opacity="1.0" fill="none"/><g id="ProcessOnG1042" transform="matrix(1.0,0.0,0.0,1.0,0.0,5.75)"><text id="ProcessOnText1043" fill="#000000" font-size="22" x="178.5" y="22.55" font-family="微软雅黑" font-weight="bold" font-style="normal" text-decoration="none" family="微软雅黑" text-anchor="middle" size="22">Full-duplex communication</text></g></g><g id="ProcessOnG1044" transform="matrix(1.0,0.0,0.0,1.0,255.37500000000006,410.0000000000002)" opacity="1.0"><path id="ProcessOnPath1045" d="M0.0 0.0L145.0 0.0L145.0 24.999999999999773L0.0 24.999999999999773Z" stroke="none" stroke-width="0.0" stroke-dasharray="none" opacity="1.0" fill="none"/><g id="ProcessOnG1046" transform="matrix(1.0,0.0,0.0,1.0,0.0,3.1249999999998863)"><text id="ProcessOnText1047" fill="#007fff" font-size="15" x="71.5" y="15.375" font-family="微软雅黑" font-weight="bold" font-style="normal" text-decoration="none" family="微软雅黑" text-anchor="middle" size="15">print "Hello, 007!"</text></g></g></g></g></svg>